<svg width="720" height="720" viewBox="0 0 720 720" fill="none" xmlns="http://www.w3.org/2000/svg">
<mask id="mask0_1261_10460" style="mask-type:alpha" maskUnits="userSpaceOnUse" x="0" y="0" width="720" height="720">
<circle cx="360" cy="360" r="360" fill="#C4C4C4"/>
</mask>
<g mask="url(#mask0_1261_10460)">
<path fill-rule="evenodd" clip-rule="evenodd" d="M720 0H0V117.41C2.11074 116.566 4.61678 115.85 5.99365 115.84C6.41927 115.837 6.07186 117.18 5.22156 118.824C4.38038 120.45 2.22136 122.124 0 123.298V128.19C0.583589 127.893 1.27404 127.553 2.08167 127.157C6.16425 125.155 8.00271 124.701 8.79846 125.496C9.59421 126.292 9.58612 127.167 8.76892 128.693C7.37606 131.295 9.10977 135.228 11.2822 134.395C12.0632 134.095 13.3587 134.102 14.1611 134.41C15.4215 134.893 15.4014 135.303 14.0128 137.421C10.177 143.274 18.7766 141.616 24.5984 135.38C26.9653 132.845 30.6327 132.077 34.0699 133.395C36.2898 134.247 36.0818 134.944 32.4056 138.974C28.0247 143.776 25.7829 144.758 19.2029 144.758C16.0227 144.758 12.2685 145.447 10.5191 146.351C8.09753 147.603 6.9167 147.707 5.00677 146.837C1.44601 145.215 0.20641 146.565 2.76065 149.283L4.94092 151.603L0.590973 152.838C0.403244 152.891 0.205755 152.944 0 152.996V200.115C0.0907529 199.897 0.179222 199.675 0.26532 199.449C2.0806 194.688 2.90779 193.799 8.11798 191.017C15.8074 186.912 19.0051 182.868 18.153 178.327C17.5979 175.369 17.8862 174.675 20.4186 172.872C22.0144 171.736 24.1273 169.017 25.1139 166.83C27.3191 161.941 30.8626 160.247 36.8379 161.223C42.1369 162.089 48.4037 165.453 49.1606 167.837C49.4713 168.816 49.2133 170.573 48.5872 171.743C47.6389 173.514 47.818 174.262 49.66 176.223L51.8712 178.576L55.4819 176.704C57.4678 175.675 60.6508 173.668 62.5552 172.243L66.0177 169.653L66.8312 171.851C67.2786 173.06 67.4056 174.673 67.1134 175.434C66.8212 176.195 67.0485 177.689 67.6184 178.754C68.2596 179.951 68.3094 181.306 67.7492 182.307C67.1175 183.435 67.5396 185.149 69.1453 187.975C71.4456 192.023 71.4457 192.027 69.4257 193.441C66.7677 195.302 68.4731 197.276 71.3905 195.715C74.2879 194.165 77.6047 194.367 79.6502 196.217C82.6739 198.953 80.1594 202.226 72.1336 206.001C63.4039 210.107 59.5131 210.92 48.1186 211.021C39.7047 211.095 38.5905 211.363 30.4104 215.283C25.6092 217.584 21.681 219.862 21.681 220.344C21.681 222.402 23.1939 222.223 28.998 219.478C32.4179 217.861 36.826 216.569 38.9254 216.568C42.5115 216.567 42.6423 216.678 41.5225 218.77C40.8739 219.982 39.4749 221.676 38.4135 222.535C36.745 223.886 36.6473 224.456 37.6918 226.748C39.2582 230.185 43.3489 231.838 48.242 231.013L52.1092 230.361L49.1357 232.411C47.5004 233.539 44.8067 234.755 43.1499 235.113C41.493 235.47 38.0879 236.795 35.5829 238.057C33.0401 239.337 30.4855 240.015 29.7993 239.591C28.2204 238.616 29.8869 237.152 35.0165 235.01C39.5787 233.104 38.8494 231.079 33.9328 232.002C32.0177 232.361 25.8077 234.699 20.1329 237.198C11.2752 241.098 9.72998 242.128 9.21429 244.476C8.61469 247.205 6.64707 248.573 0 250.671V353.233C1.15023 353.345 1.70288 353.786 1.48361 354.451C1.31316 354.969 0.725572 355.405 0 355.695V391.105C2.5269 391.63 4.82907 391.862 6.02341 391.562C10.9042 390.338 24.0922 398.354 29.0473 405.557C31.4067 408.987 38.9443 412.439 42.2587 411.607C49.0765 409.897 58.4237 416.725 60.6096 425.014C61.2606 427.482 62.2421 429.782 62.7907 430.123C64.2462 431.03 62.066 434.612 57.2997 439.144C54.2546 442.04 53.5274 443.287 54.3841 444.143C55.2408 445 56.6489 444.249 60.0303 441.133C64.9482 436.602 66.5893 436.142 69.053 438.605C70.5518 440.103 70.5057 440.408 68.4515 442.594C67.2282 443.896 65.5198 444.989 64.6552 445.024C63.7441 445.061 64.1123 445.498 65.5312 446.065C67.4802 446.843 68.4969 446.623 70.5194 444.99C75.7868 440.735 77.0254 440.531 81.7043 443.144C84.7461 444.843 85.9644 446.136 85.811 447.504C85.3846 451.307 86.2817 452.15 88.9193 450.422C91.0156 449.049 92.4538 448.984 99.4676 449.944C106.928 450.965 107.905 451.372 111.485 454.95C114.142 457.607 117.131 459.354 120.886 460.445C125.928 461.911 126.476 462.357 127.39 465.752C128.716 470.674 127.163 476.136 122.962 481.324C121.167 483.54 118.967 486.794 118.073 488.554C117.18 490.315 115.279 492.924 113.849 494.353C111.43 496.772 111.295 497.377 111.898 503.121C113.077 514.342 107.586 535.276 102.291 539.753C100.567 541.21 99.0913 541.553 96.3573 541.129C94.1101 540.781 92.4466 541.006 92.0074 541.716C91.6163 542.349 89.4378 543.683 87.1662 544.682C84.8947 545.68 81.5128 547.798 79.651 549.388C76.4285 552.14 76.3206 552.444 77.405 555.729C78.6553 559.517 77.8133 564.001 75.1337 567.826C74.2673 569.062 73.5585 571.166 73.5585 572.5C73.5585 573.835 72.5176 576.316 71.2455 578.013C69.9733 579.711 67.5191 583.596 65.7919 586.648C61.5424 594.155 58.9872 595.456 52.8255 593.248C47.4782 591.332 44.6268 591.103 44.6268 592.59C44.6268 593.151 45.6928 594.095 46.9955 594.688C48.2983 595.281 50.3285 597.697 51.5071 600.056C53.2622 603.569 53.4479 604.789 52.5331 606.796C51.1161 609.906 45.6977 612.516 40.6613 612.516C36.2005 612.516 35.0939 613.607 36.6346 616.485C37.5857 618.261 36.9459 621.12 35.1068 623.311C34.9577 623.489 33.3957 622.889 31.6355 621.979C27.4337 619.807 25.9463 621.191 28.0698 625.296C28.9336 626.966 30.5758 628.629 31.7193 628.992C33.6847 629.615 33.706 629.754 32.1081 631.519C31.1775 632.547 30.6946 634.107 31.0338 634.991C31.3982 635.94 30.5854 637.991 29.043 640.012C26.5359 643.298 26.5001 643.526 28.1074 645.978C29.0264 647.381 30.46 648.789 31.2932 649.109C34.2976 650.262 34.7957 654.199 32.5047 658.689C30.2096 663.186 29.8574 667.695 31.634 669.835C33.2489 671.781 27.8146 675.571 25.3709 674.203C24.4167 673.67 22.8258 673.49 21.8357 673.804C20.5887 674.2 19.6259 673.61 18.7031 671.887C17.9704 670.518 16.6571 669.153 15.7847 668.853C13.7832 668.164 9.58753 661.369 7.2522 655.033C6.07275 651.833 4.4866 649.621 2.60364 648.55C1.1789 647.74 0.318174 647.118 0 646.608V720H720V472.432C716.353 472.046 710.056 469.976 710.056 468.852C710.056 466.392 715.384 465.686 720 466.899V387.734C719.184 388.463 718.182 389.093 716.99 389.63C714.847 390.596 712.842 392.181 712.534 393.151C711.794 395.481 707.364 398.382 706.552 397.068C706.214 396.521 706.2 395.243 706.523 394.228C706.845 393.213 706.829 391.654 706.487 390.764C705.996 389.483 705.451 389.368 703.875 390.211C702.234 391.089 701.602 390.866 700.277 388.946C697.021 384.227 687.584 376.642 684.968 376.642C684.047 376.642 683.692 377.75 683.849 380.133C683.976 382.053 683.584 385.796 682.98 388.451C681.994 392.777 682.095 393.57 683.952 396.081C685.092 397.622 686.308 400.011 686.654 401.39C687.005 402.79 689.891 405.988 693.19 408.633C698.69 413.043 699.269 413.913 701.584 421.238C702.951 425.566 704.07 429.532 704.07 430.052C704.07 431.744 701.986 431.058 697.637 427.936C693.141 424.708 690.269 419.601 687.874 410.574C686.834 406.655 685.694 404.975 682.459 402.596C678.491 399.678 678.371 399.423 678.691 394.595C678.873 391.852 679.322 387.964 679.69 385.956C680.208 383.128 679.78 381.102 677.793 376.98C676.381 374.051 674.712 369.554 674.083 366.986C672.679 361.249 670.696 360.288 667.19 363.646C665.74 365.034 664.274 366.17 663.932 366.17C662.344 366.17 660.162 362.791 660.686 361.143C661.636 358.149 655.791 347.713 652.371 346.297C650.5 345.522 648.789 343.643 647.644 341.104C645.654 336.694 643.422 335.006 641.193 336.226C640.384 336.669 637.146 337.559 633.997 338.205C628.224 339.388 626.153 341.136 626.944 344.157C627.235 345.269 626.225 346.343 623.802 347.498C621.839 348.434 619.723 350.317 619.101 351.682C618.479 353.047 617.109 354.437 616.057 354.771C615.005 355.104 613.382 356.631 612.45 358.163C611.519 359.694 608.744 362.494 606.284 364.383C602.917 366.97 601.867 368.417 602.034 370.236C603.012 380.872 601.511 389.77 597.848 395.055C594.275 400.209 594.024 400.353 591.001 398.976C589.337 398.218 588.312 396.738 587.888 394.478C587.541 392.625 585.531 387.405 583.423 382.879C570.667 355.488 568.781 350.262 569.867 345.316C570.602 341.973 568.84 336.93 567.137 337.501C566.455 337.73 565.885 338.552 565.87 339.328C565.785 343.88 560.669 344.579 556.673 340.584L554.025 337.937L556.303 337.095C558.866 336.147 558.631 333.591 556.024 334.059C555.097 334.226 552.977 333.216 551.312 331.815C549.647 330.414 547.9 329.268 547.431 329.268C546.961 329.268 546.29 328.366 545.94 327.263C545.021 324.366 539.728 321.846 537.076 323.042C534.689 324.118 513.034 323.893 509.409 322.755C508.104 322.345 505.688 320.469 504.042 318.585C501.068 315.182 501.022 315.168 496.56 316.371C492.332 317.51 491.718 317.402 486.023 314.529C481.102 312.045 479.628 310.706 478.109 307.338C476.171 303.041 471.866 299.93 469.249 300.934C468.425 301.25 467.462 302.821 467.11 304.425C466.603 306.729 467.12 308.225 469.566 311.551C471.269 313.866 473.124 317.476 473.689 319.574C474.903 324.078 477.299 325.418 479.285 322.703C480.484 321.064 480.807 321.007 481.619 322.292C482.137 323.112 482.416 324.232 482.24 324.78C481.685 326.504 487.442 329.341 490.128 328.667C491.485 328.327 494.386 326.015 496.573 323.531C500.02 319.616 501.224 319.352 500.634 322.639C500.238 324.852 501.979 327.445 504.861 328.935C509.313 331.235 515.515 336.361 515.515 337.739C515.515 338.374 514.349 339.982 512.924 341.312C511.499 342.642 509.448 345.456 508.366 347.565C505.738 352.69 498.119 360.186 495.539 360.186C492.558 360.186 488.122 362.703 486.356 365.397C485.52 366.673 483.321 368.474 481.469 369.398C471.987 374.13 460.57 378.928 457.357 379.53C453.922 380.175 453.644 380.019 451.824 376.431C450.77 374.353 449.574 370.185 449.167 367.168C448.637 363.244 447.609 360.75 445.557 358.406C443.978 356.604 442.687 354.697 442.687 354.168C442.687 353.64 440.887 351.352 438.686 349.086C435.946 346.263 434.175 343.199 433.065 339.36C432.174 336.278 430.36 332.41 429.034 330.764C419.879 319.398 417.167 315.39 415.803 311.204C413.994 305.657 412.464 304.761 411.758 308.836L411.257 311.728L407.882 307.468C402.681 300.904 402.026 303.888 406.908 311.901C409.218 315.693 412.901 322.387 415.092 326.775C417.283 331.163 420.123 336.142 421.404 337.84C422.722 339.588 423.732 342.319 423.732 344.139C423.732 347.897 424.854 350.243 429.259 355.698C431.031 357.892 432.782 361.096 433.149 362.817C433.621 365.024 435.547 367.333 439.687 370.652C445.978 375.697 450.055 380.963 451.067 385.351C451.447 387 452.887 388.692 454.713 389.636C457.495 391.074 458.474 391.035 467.266 389.13C472.511 387.994 478.068 386.411 479.613 385.612L482.424 384.159L483.091 388.107C483.697 391.694 483.045 393.422 475.943 407.04C468.306 421.681 467.949 422.165 460.356 428.158C456.082 431.531 451.61 435.661 450.417 437.335C449.225 439.009 445.409 443.531 441.939 447.383C431.81 458.626 430.433 468.513 437.151 481.766C438.857 485.132 439.524 487.68 439.119 489.291C438.783 490.631 438.999 494.015 439.598 496.811C440.543 501.213 440.436 502.391 438.801 505.593C436.442 510.213 434.566 511.874 427.972 515.177C425.091 516.621 422.734 518.228 422.734 518.749C422.734 519.27 420.714 521.97 418.245 524.749C415.776 527.529 413.755 530.254 413.755 530.806C413.755 531.358 414.681 533.624 415.812 535.841C419.204 542.486 416.925 547.302 408.795 550.669C405.368 552.088 404.243 554.985 405.091 560.208C405.535 562.944 405.252 563.855 403.702 564.685C402.631 565.258 400.695 567.39 399.4 569.424C395.31 575.844 383.554 587.205 378.214 589.898C373.758 592.145 372.618 592.344 369.343 591.44C366.457 590.643 364.127 590.769 359.287 591.985C354.527 593.18 352.964 593.68 351.791 593.208C351.032 592.903 350.436 592.192 349.243 591C347.131 588.888 346.778 587.807 347.25 584.898C347.694 582.161 347.271 580.551 345.373 577.759C344.025 575.776 342.923 573.666 342.923 573.069C342.923 572.473 341.159 569.621 339.002 566.732C335.67 562.267 334.985 560.482 334.435 554.833C333.466 544.864 330.282 534.075 326.002 526.254C323.898 522.409 321.877 517.417 321.511 515.161C320.732 510.359 322.682 503.213 327.135 494.554L330.097 488.794L328.433 483.785C327.501 480.982 327.047 477.666 327.4 476.258C327.814 474.61 327.369 472.646 326.112 470.571C325.056 468.828 323.488 464.933 322.627 461.916C321.478 457.886 319.875 455.266 316.588 452.042C310.265 445.84 309.443 443.399 311.405 436.651C315.4 422.913 311.085 414.901 300.542 416.481C296.437 417.097 296.28 417.02 295.7 414.121C295.255 411.897 294.049 410.588 291.021 409.044C287.086 407.037 285.402 407.029 280.57 408.997C279.472 409.444 274.983 410.992 270.593 412.438C263.993 414.612 262.011 414.892 259.138 414.059C256.416 413.27 254.124 413.474 248.554 415.002C242.798 416.581 240.712 416.75 237.602 415.892C231.113 414.1 219.965 404.055 218.379 398.57C217.152 394.326 209.52 384.434 206.923 383.722C205.273 383.269 205.07 382.918 206.08 382.266C207.097 381.61 206.92 381.279 205.332 380.864C202.811 380.204 202.56 378.145 204.998 378.123C206.49 378.11 206.527 377.967 205.248 377.141C204.305 376.532 204.2 376.169 204.965 376.159C205.757 376.149 205.455 374.919 204.096 372.616C202.182 369.373 202.142 368.945 203.604 367.33C208.068 362.399 209.046 351.783 205.653 345.095C204.033 341.902 205.074 337.491 208.531 332.906C209.832 331.179 212.373 326.979 214.177 323.571C217.333 317.609 224.368 309.321 226.272 309.321C228.379 309.321 235.177 302.015 235.177 299.75C235.177 294.638 238.235 289.541 243.22 286.343C245.898 284.624 249.037 281.686 250.195 279.813C252.563 275.983 252.898 275.858 255.656 277.78C256.739 278.534 259.428 279.453 261.633 279.823C264.995 280.387 266.603 279.981 271.609 277.304C280.223 272.699 285.547 271.548 295.403 272.163C301.904 272.569 304.83 272.309 307.981 271.049C312.622 269.193 316.634 270.291 315.548 273.121C315.221 273.971 315.421 275.228 315.99 275.915C316.708 276.779 316.702 278.017 315.972 279.936C315.055 282.347 315.259 283.064 317.53 285.435C318.967 286.934 321.54 288.44 323.248 288.781C331.266 290.385 333.546 291.423 335.201 294.225C336.414 296.277 338.004 297.331 340.633 297.824C342.677 298.208 345.646 299.191 347.23 300.01C349.92 301.401 350.268 301.35 352.511 299.243C354.019 297.827 354.703 296.328 354.35 295.213C354.04 294.237 354.276 292.524 354.874 291.406C356.418 288.523 360.8 288.806 367.643 292.231C375.098 295.962 389.235 298.624 394.247 297.241C396.658 296.575 398.975 296.566 401.086 297.215C407.979 299.333 411.509 297.675 412.451 291.878C412.763 289.952 413.297 288.377 413.637 288.377C414.281 288.377 414.619 285.482 414.712 279.151C414.743 277.094 415.229 275.411 415.793 275.411C416.465 275.411 416.432 274.689 415.697 273.316C414.47 271.024 411.982 271.077 406.027 273.52C403.203 274.678 402.417 274.629 399.888 273.135C396.607 271.198 393.241 270.907 392.27 272.477C391.548 273.645 386.447 272.827 383.68 271.099C381.693 269.858 379.836 266.165 379.836 263.453C379.836 262.412 378.825 260.85 377.591 259.981C375.68 258.635 375.569 258.254 376.843 257.421C377.666 256.882 379.359 256.681 380.605 256.975C382.194 257.348 383.656 256.723 385.501 254.878C387.237 253.142 389.349 252.184 391.715 252.058C393.686 251.954 396.542 251.05 398.06 250.049C401.357 247.877 408.841 248.481 414.648 251.387C422.479 255.305 429.434 255.075 432.233 250.804C433.689 248.582 433.697 248.115 432.315 246.007C431.473 244.722 427.428 241.762 423.327 239.43L415.87 235.188L417.267 232.487C418.035 231.001 418.413 229.534 418.105 229.227C417.798 228.92 417.915 228.077 418.366 227.355C418.817 226.633 419.274 225.463 419.382 224.754C419.611 223.244 418.002 223.661 410.068 227.168C405.462 229.205 404.778 229.829 405.799 231.059C406.469 231.865 407.971 232.545 409.139 232.569C410.776 232.603 410.388 233.074 407.442 234.628C403.865 236.514 403.466 236.539 401.14 235.015C399.152 233.713 398.892 233.107 399.834 231.971C400.77 230.845 400.63 230.411 399.153 229.856C398.13 229.472 396.813 228.516 396.224 227.732C393.367 223.925 384.301 233.941 381.664 243.819C380.426 248.456 380.468 248.697 382.797 250.454L385.215 252.277L380.78 253.192C378.34 253.695 375.052 253.753 373.473 253.322C370.559 252.526 366.866 253.726 366.866 255.468C366.866 255.98 366.187 256.138 365.357 255.82C364.527 255.502 363.209 255.771 362.429 256.418C361.218 257.423 361.355 258.246 363.361 262.018C365.534 266.104 365.602 266.663 364.246 269.38C362.548 272.784 360.968 272.53 358.568 268.47C356.896 265.639 356.907 265.574 359.12 265.26C361.913 264.863 362.093 263.086 359.384 262.653C353.203 261.665 349.906 258.408 349.906 253.291C349.906 249.297 346.203 244.895 341.713 243.55C339.379 242.851 336.842 241.384 336.075 240.289C335.308 239.194 333.063 237.623 331.086 236.797C329.109 235.971 326.897 234.446 326.169 233.408C325.125 231.918 324.439 231.739 322.911 232.557C321.846 233.126 320.974 234.234 320.974 235.019C320.974 237.609 333.69 249.323 339.906 252.46C346.496 255.786 347.526 256.974 342.947 255.968C338.865 255.072 337.753 255.969 339.149 259.033C340.13 261.185 339.969 261.839 337.996 263.735L335.704 265.936L336.226 262.965C337.054 258.249 330.834 251.475 325.676 251.475C323.785 251.475 316.521 244.43 314.618 240.751C312.584 236.82 310.322 236.061 307.116 238.234C302.288 241.507 298.667 242.613 294.88 241.974C289.848 241.124 286.683 242.878 287.485 246.071C287.903 247.738 287.67 248.483 286.73 248.483C285.982 248.483 284.065 249.604 282.471 250.975C280.877 252.346 279.229 253.468 278.809 253.468C277.575 253.47 274.093 259.771 274.089 262.01C274.085 264.151 270.184 268.369 266.419 270.303C265.22 270.918 262.43 271.422 260.219 271.422C257.176 271.422 255.929 271.923 255.095 273.482C254.002 275.524 253.968 275.519 251.412 272.963C249.013 270.565 247.632 269.965 242.791 269.217C240.248 268.823 239.818 263.068 241.721 254.868C242.534 251.362 242.933 247.434 242.608 246.138C241.662 242.373 244.622 240.153 249.572 240.913C261.003 242.668 267.69 242.765 269.257 241.198C271.411 239.045 272.382 231.945 271.068 227.964C270.211 225.367 269.032 224.306 265.514 222.962C260.34 220.987 260.231 219.076 265.289 219.026C267.217 219.006 269.997 218.202 271.467 217.239C272.938 216.275 274.565 215.749 275.082 216.068C276.492 216.939 281.832 213.862 283.606 211.156C284.463 209.848 286.151 208.527 287.356 208.22C288.562 207.913 291.793 205.571 294.537 203.016C298.426 199.394 300.467 198.258 303.802 197.86C307.934 197.367 312.089 193.97 310.139 192.68C308.926 191.879 307.913 187.049 308.589 185.29C308.908 184.456 310.321 183.021 311.727 182.1L314.284 180.425L313.628 184.529C313.058 188.09 313.203 188.594 314.728 188.339C315.694 188.177 317.502 187.487 318.745 186.804C320.637 185.765 321.101 185.816 321.6 187.115C322.455 189.343 320.078 191.962 318.437 190.6C317.53 189.848 316.955 189.875 316.449 190.694C315.927 191.539 315.518 191.493 314.918 190.522C314.468 189.794 313.87 189.427 313.591 189.707C313.311 189.987 314.108 191.503 315.363 193.076C317.478 195.727 317.881 195.853 320.895 194.803C323.477 193.903 324.717 193.964 326.914 195.101C329.396 196.383 330.233 196.322 335.003 194.511C339.181 192.923 340.828 192.72 342.677 193.562C344.379 194.337 345.639 194.321 347.22 193.505C351.707 191.187 352.95 189.439 352.393 186.23C351.567 181.475 353.08 179.917 357.063 181.42C359.773 182.443 360.565 182.402 361.79 181.178C363.087 179.881 362.976 179.402 360.85 177.14C358.805 174.964 358.662 174.423 359.909 173.582C360.717 173.036 363.748 172.841 366.643 173.148C371.942 173.709 378.545 171.639 377.395 169.778C376.387 168.149 370.305 167.678 365.153 168.83C360.583 169.853 359.384 169.77 355.881 168.191C350.442 165.739 349.801 162.87 353.532 157.671C358.334 150.98 359.212 148.848 357.844 147.2C355.819 144.76 353.829 145.555 349.201 150.655C346.756 153.35 343.424 156.106 341.797 156.78C340.169 157.453 338.156 159.322 337.324 160.932C335.967 163.555 335.969 164.104 337.344 166.202C338.188 167.49 339.789 168.832 340.901 169.185C343.961 170.156 343.356 171.978 338.978 174.973C337.632 175.894 335.836 178.499 334.988 180.762C333.924 183.599 332.308 185.534 329.787 186.989C326.232 189.041 326.071 189.049 324.107 187.272C322.995 186.266 321.815 184.214 321.485 182.713C321.155 181.211 319.657 178.511 318.156 176.714L315.426 173.445L311.965 175.554C310.061 176.714 307.606 177.655 306.509 177.645C303.343 177.616 299.678 174.197 299.432 171.044C299.31 169.478 298.903 167.428 298.527 166.488C297.633 164.255 302.101 160.065 306.744 158.783C311.403 157.497 320.853 150.876 322.464 147.769C323.18 146.388 325.607 143.607 327.857 141.59C330.108 139.573 331.948 137.478 331.948 136.935C331.948 136.391 334.081 135.187 336.687 134.259C339.294 133.33 343.671 131.646 346.414 130.515C349.783 129.127 353.995 128.393 359.384 128.255C368.8 128.015 374.959 129.262 380.04 132.441C382.589 134.036 384.602 134.58 386.527 134.195C389.971 133.506 408.333 139.196 409.098 141.189C409.867 143.192 404.601 145.083 400.07 144.43C397.995 144.132 393.703 143.333 390.532 142.655C386.265 141.742 384.477 141.714 383.647 142.544C382.816 143.374 383.231 143.987 385.246 144.905C386.742 145.586 388.615 147.398 389.409 148.932C391.428 152.836 397.897 156.019 401.234 154.751C404.441 153.532 404.419 153.148 401.035 151.313C397.906 149.616 399.351 149.249 403.281 150.742C406.418 151.935 409.973 150.451 409.146 148.295C408.758 147.284 409.848 146.555 412.924 145.767C419.506 144.081 419.988 143.84 419.442 142.506C418.247 139.585 417.734 138.403 418.096 137.992C418.359 137.693 419.087 137.802 420.352 137.947C421.956 138.13 423.127 138.815 422.994 139.492C422.862 140.162 423.697 141.214 424.85 141.831C426.582 142.757 427.948 142.427 432.71 139.932C439.692 136.273 445.128 135.08 447.155 136.762C448.286 137.7 450.16 137.706 455.585 136.791C459.421 136.145 462.996 135.884 463.529 136.214C464.062 136.543 464.792 136.336 465.151 135.755C465.937 134.483 463.763 131.597 462.573 132.333C461.136 133.221 456.418 131.63 457.444 130.604C458.478 129.571 486.242 136.038 487.903 137.7C489.023 138.819 492.569 137.326 492.569 135.734C492.569 135.198 490.589 133.797 488.169 132.622C480.666 128.977 480.184 123.14 487.241 121.37C491.336 120.342 493.107 121.528 498.772 129.088C503.754 135.738 505.275 137.653 504.99 139.246C504.855 140.004 504.311 140.689 503.536 141.777C501.757 144.275 501.649 144.86 502.884 145.333C505.223 146.23 510.229 143.091 510.933 140.284C511.759 136.996 510.217 134.194 506.536 132.291C503.643 130.795 501.548 128.054 501.548 125.763C501.548 124.982 502.634 124.787 504.791 125.181C508.025 125.772 510.7 124.599 518.023 119.381C519.698 118.188 522.53 117.401 525.385 117.337C531.176 117.205 533.05 116.233 531.384 114.226C530.73 113.439 530.403 112.587 530.657 112.333C531.931 111.06 548.356 108.764 552.138 109.331C555.778 109.877 556.905 109.582 559.899 107.299C561.826 105.829 563.402 104.232 563.402 103.748C563.402 102.529 554.684 102.638 553.925 103.867C552.879 105.557 551.525 104.969 551.906 102.99C552.228 101.319 551.384 101.048 544.117 100.482C524.274 98.9375 522.661 98.5751 525.042 96.1953C527.135 94.103 532.268 94.1436 536.565 96.2863C538.325 97.1643 541.241 97.8827 543.045 97.8827C544.849 97.8827 546.602 98.3315 546.941 98.88C547.28 99.4285 549.028 99.8773 550.824 99.8773C555.8 99.8773 565.42 102.026 564.816 103.002C564.523 103.478 565.453 103.867 566.885 103.867C568.316 103.867 570.924 104.64 572.68 105.584C575.042 106.855 578.34 107.312 585.35 107.34C592.886 107.37 595.39 107.757 597.572 109.228C599.081 110.245 600.309 111.363 600.301 111.711C600.293 112.059 597.99 113.611 595.184 115.158C588.407 118.896 589.84 120.525 598.037 118.402C603.347 117.026 604.567 117.017 608.963 118.322C612.569 119.393 614.821 119.531 617.267 118.829C619.709 118.129 622.215 118.28 626.468 119.381C630.905 120.531 633.205 120.648 636.017 119.867C642.435 118.085 650.331 118.588 654.912 121.071C657.189 122.305 661.388 124.589 664.243 126.146C669.304 128.906 669.524 128.936 673.034 127.363C675.973 126.046 677.612 125.936 681.945 126.764C686.253 127.588 687.821 127.487 690.246 126.233C692.62 125.006 693.002 124.403 692.096 123.312C690.344 121.202 696.559 120.418 704.196 121.785C707.693 122.411 712.126 123.036 714.047 123.174C715.439 123.274 717.794 123.877 720 124.658V0ZM720 342.663C718.698 339.598 715.877 338.864 711.875 340.556C708.104 342.151 705.618 344.695 704.615 347.984C703.718 350.927 706.895 356.104 712.156 360.269C714.926 362.463 717.914 366.78 720 371.242V354.893C719.43 354.936 718.867 354.632 718.249 354.015C716.241 352.008 717.27 349.703 720 348.712V342.663ZM0 645.805C0.238084 645.5 0.77757 645.232 1.60925 644.968C4.56801 644.029 5.11847 638.814 2.62796 635.318C1.43931 633.649 0.813812 631.69 1.17194 630.757C1.4435 630.049 1.05895 628.999 0 627.575V645.805ZM0 134.176C0.0775518 133.852 0.0787305 133.527 0 133.205V134.176ZM31.5917 677.018C30.3879 680.183 31.8054 682.04 36.8732 683.936C38.6685 684.607 41.4281 684.97 43.0056 684.741C44.5831 684.512 47.5012 684.289 49.4903 684.246L53.1068 684.168L50.1671 683.101C48.5504 682.514 44.5525 680.305 41.2831 678.193C38.0136 676.08 34.7237 674.352 33.9721 674.352C33.2206 674.352 32.1494 675.552 31.5917 677.018ZM63.7816 669.565C63.1231 670.223 62.5844 671.12 62.5844 671.559C62.5844 672.937 64.6683 672.432 67.1993 670.442C69.9163 668.305 69.4743 667.664 65.0785 667.363C60.1533 667.027 58.4414 667.314 59.0926 668.368C59.4317 668.916 59.1216 669.378 58.4033 669.395C57.6661 669.412 57.9278 669.908 59.004 670.532C60.5096 671.406 61.1622 671.295 62.1069 670.003C62.7649 669.104 63.6802 668.368 64.1409 668.368C64.6017 668.368 64.44 668.906 63.7816 669.565ZM483.591 267.03C483.591 270.828 483.223 271.561 480.647 272.892C479.028 273.729 477.569 274.392 477.405 274.365C477.24 274.338 474.022 272.734 470.252 270.8L463.398 267.284L463.896 262.122C464.514 255.71 463.598 253.235 458.602 247.817C456.433 245.465 454.659 242.873 454.659 242.057C454.659 241.241 453.761 240.094 452.664 239.506C449.715 237.929 450.167 236.657 455.382 231.871C463.462 224.455 469.977 224.023 474.656 230.592C476.585 233.301 475.896 235.431 473.557 233.986C471.823 232.914 467.761 234.402 466.624 236.526C465.122 239.332 466.836 242.054 471.652 244.51C473.829 245.62 475.609 246.984 475.609 247.541C475.609 248.219 476.246 248.212 477.537 247.521C479.135 246.667 479.819 246.987 481.528 249.386C482.662 250.978 483.591 252.725 483.591 253.267C483.591 254.639 480.919 255.525 479 254.789C477.547 254.231 477.541 254.443 478.935 257.137C479.777 258.765 481.169 260.681 482.028 261.394C483.008 262.207 483.591 264.308 483.591 267.03ZM449.21 543.156C449.945 549.043 450.346 549.886 453.162 551.483C454.174 552.056 454.702 552.396 455.274 552.506C456.108 552.667 457.035 552.342 459.688 551.547C463.89 550.289 465.348 547.749 467.913 537.216C468.715 533.925 471.478 525.403 474.053 518.279C478.867 504.965 479.148 502.298 476.381 496.228L475.282 493.815L473.7 497.235C471.629 501.711 462.989 509.336 458.996 510.212C454.758 511.142 453.207 514.973 454.118 522.263C454.749 527.312 454.543 528.208 451.682 532.856C448.867 537.429 448.622 538.452 449.21 543.156ZM500.551 531.73C500.002 531.73 499.553 532.179 499.553 532.728C499.553 533.276 500.002 533.725 500.551 533.725C501.099 533.725 501.548 533.276 501.548 532.728C501.548 532.179 501.099 531.73 500.551 531.73ZM507.534 528.24C506.985 528.579 506.536 529.054 506.536 529.296C506.536 529.538 506.985 529.736 507.534 529.736C508.083 529.736 508.532 529.26 508.532 528.68C508.532 528.099 508.083 527.901 507.534 528.24ZM454.6 494.828C454.019 494.828 453.821 495.277 454.16 495.826C454.499 496.374 454.975 496.823 455.217 496.823C455.459 496.823 455.657 496.374 455.657 495.826C455.657 495.277 455.181 494.828 454.6 494.828ZM692.071 447.391C694.224 452.411 700.834 460.487 704.5 462.574C708.442 464.819 712.701 460.16 711.539 454.873C711.184 453.257 709.579 450.479 707.973 448.698C706.366 446.917 704.045 444.338 702.815 442.966C701.585 441.595 700.552 440.024 700.519 439.475C700.347 436.561 698.627 434.233 694.994 431.995C691.23 429.677 689.597 428.196 681.623 419.875C678.733 416.858 671.994 413.113 669.376 413.068C667.357 413.033 670.32 417.894 675.138 422.521C677.424 424.715 679.983 427.856 680.825 429.502C681.668 431.148 684.068 434.738 686.159 437.481C688.25 440.223 690.91 444.683 692.071 447.391ZM504.541 460.919C503.992 460.919 503.544 461.367 503.544 461.916C503.544 462.464 503.992 462.913 504.541 462.913C505.09 462.913 505.539 462.464 505.539 461.916C505.539 461.367 505.09 460.919 504.541 460.919ZM302.019 433.491C301.471 433.83 301.022 434.306 301.022 434.548C301.022 434.79 301.471 434.987 302.019 434.987C302.568 434.987 303.017 434.512 303.017 433.931C303.017 433.35 302.568 433.152 302.019 433.491ZM308.005 421.523C307.456 421.862 307.007 422.337 307.007 422.579C307.007 422.821 307.456 423.019 308.005 423.019C308.554 423.019 309.003 422.544 309.003 421.963C309.003 421.382 308.554 421.184 308.005 421.523ZM604.042 397.251C603.236 399.408 603.87 407.535 604.986 409.346C605.601 410.345 609.556 409.15 610.518 407.675C611.523 406.134 610.548 403.248 607.502 398.747C604.96 394.992 604.896 394.964 604.042 397.251ZM16.019 389.765C16.38 390.126 16.1754 391.024 15.5643 391.76C14.6975 392.804 14.8933 393.099 16.4542 393.099C17.6163 393.099 18.6741 392.262 18.9771 391.104C19.3749 389.583 19.0077 389.109 17.4307 389.109C16.2932 389.109 15.6579 389.405 16.019 389.765ZM30.1021 377.141C29.8601 377.141 29.6621 377.59 29.6621 378.138C29.6621 378.687 30.1375 379.136 30.7186 379.136C31.2997 379.136 31.4977 378.687 31.1586 378.138C30.8195 377.59 30.344 377.141 30.1021 377.141ZM24.6739 370.658C24.1252 370.997 23.6762 371.473 23.6762 371.714C23.6762 371.956 24.1252 372.154 24.6739 372.154C25.2226 372.154 25.6715 371.679 25.6715 371.098C25.6715 370.517 25.2226 370.319 24.6739 370.658ZM181.304 367.168C180.755 367.168 180.307 367.616 180.307 368.165C180.307 368.713 180.755 369.162 181.304 369.162C181.853 369.162 182.302 368.713 182.302 368.165C182.302 367.616 181.853 367.168 181.304 367.168ZM21.6809 362.679C21.1322 363.018 20.6833 363.745 20.6833 364.293C20.6833 364.842 21.1322 365.013 21.6809 364.674C22.2296 364.335 22.6786 363.609 22.6786 363.06C22.6786 362.512 22.2296 362.34 21.6809 362.679ZM13.1491 359.805C12.2614 359.465 11.8609 359.632 12.2104 360.197C12.5456 360.74 13.2423 361.183 13.7587 361.183C15.1937 361.183 14.8775 360.469 13.1491 359.805ZM171.269 359.189C170.688 359.189 170.49 359.638 170.829 360.186C171.168 360.735 171.643 361.183 171.885 361.183C172.127 361.183 172.325 360.735 172.325 360.186C172.325 359.638 171.85 359.189 171.269 359.189ZM16.6339 357.194C16.0528 357.194 15.8548 357.643 16.1939 358.191C16.533 358.74 17.0085 359.189 17.2504 359.189C17.4924 359.189 17.6904 358.74 17.6904 358.191C17.6904 357.643 17.2149 357.194 16.6339 357.194ZM21.1233 357.194C20.8813 357.194 20.6833 357.643 20.6833 358.191C20.6833 358.74 21.1587 359.189 21.7398 359.189C22.3209 359.189 22.5189 358.74 22.1797 358.191C21.8406 357.643 21.3652 357.194 21.1233 357.194ZM6.21747 352.844C5.39441 353.16 4.72098 353.594 4.72098 353.81C4.72098 354.026 5.39441 354.202 6.21747 354.202C7.04053 354.202 7.71393 353.767 7.71393 353.236C7.71393 352.705 7.04053 352.528 6.21747 352.844ZM18.688 287.878C18.1393 288.217 17.6904 288.692 17.6904 288.934C17.6904 289.176 18.1393 289.374 18.688 289.374C19.2367 289.374 19.6857 288.899 19.6857 288.318C19.6857 287.737 19.2367 287.539 18.688 287.878ZM403.72 278.403C401.825 278.403 401.191 279.473 402.382 280.664C403.247 281.528 407.567 279.373 408.182 277.769C408.782 276.207 407.201 275.906 406.273 277.406C405.934 277.954 404.785 278.403 403.72 278.403ZM365.37 277.568L368.363 278.938C371.797 280.51 376.469 280.812 377.271 279.514C377.992 278.348 374.331 277.417 369.36 277.5L365.37 277.568ZM325.965 266.145C323.88 266.69 324.068 266.945 328.061 268.989C332.027 271.019 332.512 271.075 333.126 269.582C333.499 268.674 333.835 267.651 333.874 267.308C333.987 266.305 328.461 265.493 325.965 266.145ZM308.391 253.653C307.269 254.775 307.201 255.722 308.065 258.199C309.492 262.293 311.996 261.474 311.996 256.912C311.996 253.05 310.42 251.625 308.391 253.653ZM287.803 258.706C288.414 256.872 285.378 257.184 284.671 259.027C284.251 260.121 284.571 260.498 285.728 260.274C286.641 260.097 287.575 259.391 287.803 258.706ZM310.499 245.13C308.947 245.725 308.511 247.658 309.668 248.815C311.019 250.166 311.996 249.412 311.996 247.018C311.996 245.239 311.58 244.715 310.499 245.13ZM70.5342 224.546C70.0028 224.546 69.5679 225.219 69.5679 226.042C69.5679 226.865 69.7443 227.538 69.96 227.538C70.1756 227.538 70.6105 226.865 70.9263 226.042C71.2422 225.219 71.0657 224.546 70.5342 224.546ZM60.6382 222.434L64.3548 222.824C71.801 223.605 76.1297 223.516 79.7558 222.51C83.2122 221.55 83.3859 221.321 82.3615 219.073C81.7233 217.673 80.0717 216.404 78.4148 216.04C74.6194 215.206 73.2032 212.629 75.2801 210.335C76.1973 209.321 76.3917 208.589 75.7432 208.589C75.1286 208.589 71.4785 211.704 67.632 215.511L60.6382 222.434ZM265.416 208.606C263.874 209.162 261.714 210.06 260.617 210.601C259.091 211.354 259.442 211.433 262.113 210.939C264.034 210.583 269.098 209.788 273.368 209.172C279.171 208.335 280.844 207.766 279.995 206.917C279.147 206.069 279.514 205.354 281.452 204.084C284.313 202.211 283.951 200.145 280.902 200.942C279.416 201.331 278.579 200.597 277.306 197.788C274.65 191.925 272.04 188.573 269.333 187.544L266.811 186.586L269.049 184.205L271.286 181.824L268.944 181.469C267.656 181.274 266.715 180.564 266.852 179.891C266.989 179.218 266.765 178.676 266.353 178.683C263.61 178.739 260.659 183.901 261.944 186.398C262.437 187.357 262.64 188.704 262.394 189.39C261.965 190.587 263.199 191.056 265.862 190.709C267.017 190.558 269.097 194.434 269.097 196.737C269.097 197.279 267.751 198.191 266.105 198.764C264.424 199.35 263.398 200.267 263.763 200.858C264.121 201.437 263.592 202.51 262.588 203.244C260.901 204.477 261.005 204.627 263.953 205.216C268.25 206.076 268.813 207.381 265.416 208.606ZM244.658 200.603C243.841 202.183 243.452 204.203 243.793 205.092C244.193 206.135 244.988 206.46 246.03 206.01C246.92 205.625 249.556 204.649 251.888 203.839C255.444 202.605 256.128 201.94 256.128 199.716C256.128 198.258 256.827 196.066 257.682 194.846C258.537 193.626 258.959 192.179 258.621 191.632C257.698 190.139 251.552 190.433 250.223 192.034C249.585 192.803 247.958 193.71 246.609 194.048C244.069 194.685 243.421 196.049 245.15 197.117C245.777 197.504 245.596 198.791 244.658 200.603ZM263.111 194.127C262.562 194.466 262.113 194.941 262.113 195.183C262.113 195.425 262.562 195.623 263.111 195.623C263.66 195.623 264.109 195.148 264.109 194.567C264.109 193.986 263.66 193.788 263.111 194.127ZM346.747 168.981C344.65 169.139 344.324 170.284 346.165 171.026C348.23 171.859 348.576 171.75 348.576 170.265C348.576 169.483 347.753 168.906 346.747 168.981ZM119.431 152.784C117.601 157.199 120.619 162.487 126.932 165.928C129.676 167.424 132.594 168.643 133.417 168.636C136.457 168.611 139.396 166.025 144.271 159.085C150.34 150.446 153.744 148.217 163.817 146.291C168.637 145.369 172.755 143.91 174.693 142.437C180.636 137.921 184.677 136.312 190.283 136.229C193.301 136.183 199.695 135.322 204.493 134.314C211.759 132.787 213.022 132.247 212.054 131.08C211.24 130.1 209.777 129.869 207.174 130.308C203.086 130.999 200.463 129.082 204.171 128.113C205.829 127.679 206.042 127.265 205.156 126.197C202.884 123.46 207.143 123.473 211.102 126.216C214.02 128.238 215.442 128.656 217.195 128.007L219.483 127.161L216.953 125.238C215.561 124.18 212.971 122.516 211.197 121.539C207.44 119.47 207.948 118.438 212.805 118.269C217.179 118.117 225.998 114.046 226.693 111.858C226.982 110.947 228.541 108.935 230.157 107.387C232.382 105.257 232.875 104.16 232.187 102.875C230.592 99.8957 236.609 95.2296 243.158 94.3676C246.176 93.9704 249.543 92.9861 250.641 92.1803C252.441 90.8582 251.988 90.7797 245.997 91.376C240.451 91.928 238.712 91.7067 235.425 90.0303C229.865 87.1947 215.729 85.4329 210.289 86.8975C207.944 87.5286 203.791 87.7564 200.923 87.4111C197.548 87.0047 191.296 87.5439 182.801 88.9742C173.678 90.51 166.576 91.0811 158.857 90.8998C134.412 90.3253 133.631 90.4107 123.386 94.7784C116.769 97.5995 111.446 99.105 105.509 99.8351C100.86 100.407 96.8192 100.875 96.5305 100.875C96.2417 100.876 95.9417 101.983 95.8636 103.336C95.6759 106.592 97.7908 107.223 109.144 107.298C117.481 107.352 118.529 107.578 120.963 109.851C124.271 112.938 127.593 119.24 126.885 121.085C126.574 121.895 127.34 122.909 128.747 123.55C131.528 124.817 132.952 129.932 131.354 132.917C130.777 133.995 128.163 136.194 125.545 137.805C120.032 141.195 117.877 144.812 119.529 147.898C120.323 149.38 120.296 150.694 119.431 152.784ZM50.3604 153.804C51.4269 155.488 54.0524 157.942 56.1949 159.258C60.0607 161.633 64.9968 162.462 65.963 160.899C66.2399 160.451 65.1361 159.299 63.5102 158.339C58.3204 155.274 62.0667 153.381 67.63 156.257C70.46 157.72 70.626 157.685 71.6682 155.398C72.514 153.542 72.4003 152.327 71.1557 149.921C69.6391 146.989 69.6592 146.774 71.5432 145.766C73.0827 144.942 74.4189 145.156 77.4772 146.716C81.8734 148.958 83.4419 148.728 85.4282 145.548C85.9071 144.782 86.2436 144.29 86.2378 143.803C86.226 142.815 84.8099 141.845 80.3277 138.64C78.7276 137.496 78.0479 136.009 78.0479 133.653C78.0479 130.511 77.7362 130.198 73.1795 128.757C70.3204 127.852 67.3884 126.06 66.0755 124.414C64.1774 122.034 63.5291 121.777 61.7812 122.712C58.8787 124.265 58.4821 124.174 53.3352 120.766C49.4669 118.204 48.1471 117.827 45.0663 118.405C43.0501 118.783 39.9175 120.394 38.105 121.985C33.8321 125.736 32.3523 123.807 36.2872 119.616L39.1397 116.578L35.1492 117.288C30.1302 118.181 21.6809 124.195 21.6809 126.875C21.6809 128.334 27.5693 129.907 30.7831 129.306C32.6357 128.959 36.297 129.158 38.9192 129.746C42.8153 130.621 44.2377 130.532 46.7 129.259C49.5165 127.803 49.9331 127.837 53.082 129.783C54.9348 130.927 57.6253 133.867 59.0608 136.316C60.4963 138.765 62.0151 140.769 62.4358 140.769C62.8565 140.769 64.0721 141.408 65.1372 142.19C66.9993 143.557 66.9597 143.655 64.1091 144.743C61.9903 145.551 60.4822 145.573 58.8232 144.817C56.1283 143.589 51.2815 145.566 50.2225 148.325C49.6954 149.698 48.6912 149.859 44.1713 149.295C38.2283 148.552 32.8922 150.178 35.8464 151.831C36.7002 152.308 38.8354 152.256 40.7382 151.71C46.3588 150.099 48.2784 150.516 50.3604 153.804ZM262.612 159.718C261.789 159.718 261.116 160.092 261.116 160.549C261.116 161.007 261.789 161.381 262.612 161.381C263.435 161.381 264.109 161.007 264.109 160.549C264.109 160.092 263.435 159.718 262.612 159.718ZM12.3303 154.824C15.0846 154.064 16.6121 154.152 18.5789 155.186C20.8145 156.361 21.2989 156.347 22.0092 155.092C23.1232 153.122 21.2904 151.097 17.1606 149.735C13.4913 148.524 11.4282 149.185 8.38602 152.546C6.00969 155.171 7.64729 156.116 12.3303 154.824ZM212.064 153.29C212.979 153.001 215.074 153.65 216.721 154.732C218.367 155.814 220.387 156.516 221.21 156.292C230.294 153.822 234.055 152.451 236.083 150.872L238.485 149L235.788 147.233C233.46 145.708 232.546 145.63 229.102 146.662C226.908 147.319 224.267 147.588 223.234 147.261C220.271 146.32 211.505 149.595 210.912 151.864C210.525 153.343 210.805 153.689 212.064 153.29ZM264.109 130.795C264.109 129.546 263.05 129.546 261.116 130.795C259.906 131.577 260.049 131.765 261.864 131.777C263.099 131.786 264.109 131.344 264.109 130.795ZM439.788 125.775C439.862 126.348 441.024 126.781 444.184 128.028C446.378 128.895 449.521 129.624 451.167 129.649L454.16 129.693L451.915 128.128C448.972 126.075 449.08 123.672 452.284 119.864C455.326 116.25 459.945 114.1 467.628 112.72C475.372 111.329 476.721 110.843 476.014 109.699C475.65 109.11 473.679 108.957 471.261 109.33C468.989 109.681 464.211 110.2 460.645 110.483C457.078 110.766 452.813 111.611 451.167 112.361C448.297 113.668 444.235 117.558 444.2 119.033C444.191 119.421 443.286 120.417 442.188 121.246C441.091 122.075 440.585 122.767 441.063 122.785C441.542 122.802 441.366 123.5 440.672 124.336C440.107 125.017 439.742 125.422 439.788 125.775ZM21.759 116.358C17.6122 115.043 7.85018 118.621 9.27951 120.933C9.62684 121.495 10.6512 121.64 11.556 121.254C12.4607 120.869 15.1309 120.233 17.4897 119.841C22.7613 118.965 24.7812 117.317 21.759 116.358ZM28.8904 112.384C29.0405 112.523 34.5506 113.066 41.135 113.589C47.7195 114.113 53.7802 114.589 54.6032 114.648C55.4263 114.706 57.671 113.915 59.5915 112.889L63.0832 111.023L60.2594 110.309C58.7063 109.916 54.2169 109.826 50.2829 110.11C44.4467 110.53 42.4217 110.264 39.2802 108.666C36.057 107.026 34.972 106.897 32.6177 107.872C30.2232 108.863 27.9983 111.557 28.8904 112.384ZM326.711 105.846C322.862 105.868 323.334 107.005 328.235 109.513L332.447 111.669L335.69 108.085C337.473 106.114 338.932 104.134 338.932 103.685C338.932 102.309 342.605 102.781 343.884 104.322C344.547 105.12 344.782 106.271 344.407 106.879C343.929 107.652 344.8 107.781 347.314 107.31C349.635 106.875 350.904 107.017 350.904 107.714C350.904 108.306 351.566 108.537 352.375 108.227C353.637 107.742 353.647 107.464 352.446 106.263C351.676 105.494 350.602 104.864 350.058 104.864C348.542 104.864 342.936 101.478 342.929 100.558C342.926 100.11 343.708 99.9736 344.669 100.256C349.38 101.639 353.68 101.905 356.152 100.965C360.909 99.1574 359.234 97.8825 352.101 97.8825C348.155 97.8825 344.816 97.3819 344.12 96.6857C343.189 95.7549 342.923 95.7549 342.923 96.6857C342.923 97.344 342.281 97.8825 341.496 97.8825C340.711 97.8825 339.87 98.8924 339.627 100.127L339.185 102.371L338.444 100.127C337.71 97.9062 334.942 96.9367 334.942 98.9C334.942 99.5671 331.678 99.6881 325.464 99.2515C317.305 98.6782 315.986 98.7993 315.986 100.122C315.986 101.684 317.159 102.383 322.42 103.958C324.491 104.578 325.586 104.476 326.12 103.613C326.696 102.681 327.155 102.665 328.038 103.548C328.676 104.186 329.93 104.476 330.823 104.193C332.227 103.748 332.245 103.824 330.951 104.755C330.128 105.347 328.22 105.838 326.711 105.846ZM55.6009 106.36C59.4058 106.01 61.8526 106.304 63.5821 107.319C64.9538 108.124 66.0761 108.793 66.0761 108.805C66.0761 108.818 68.7208 107.487 71.9532 105.849C75.1856 104.21 78.4489 102.869 79.205 102.869C79.9611 102.869 83.1036 101.523 86.1883 99.8773C89.2731 98.2316 92.801 96.8852 94.0283 96.8852C99.0692 96.8852 111.339 93.3529 118.885 89.7297L126.932 85.8651L122.057 86.4699C119.376 86.8026 111.071 87.4609 103.601 87.9327C89.2 88.8425 67.2681 90.8731 66.8011 91.3399C66.1476 91.9932 81.6281 92.9116 83.8588 92.3519C87.0863 91.5421 88.1942 93.4652 85.3705 94.9759C83.8966 95.7645 80.2908 95.973 74.5527 95.6013C65.2798 95.0008 62.4142 95.672 65.0203 97.8343C67.4644 99.8621 65.7206 101.064 61.2349 100.442C57.7989 99.9665 57.5066 100.044 59.5112 100.901C63.7307 102.705 60.3089 104.372 52.5175 104.309C46.2867 104.258 45.7878 104.391 47.8292 105.559C49.31 106.405 52.0445 106.687 55.6009 106.36ZM42.6687 94.8943C39.1156 96.7353 39.2929 97.1376 44.128 98.2072C48.0976 99.0853 49.5631 98.8433 53.1741 96.7134C56.6388 94.6697 56.7411 94.4685 54.977 93.167C52.7488 91.523 47.8478 92.2108 42.6687 94.8943Z" fill="white"/>
</g>
</svg>
