<svg width="64" height="24" viewBox="0 0 64 24" fill="none" xmlns="http://www.w3.org/2000/svg">
<path d="M55.8278 17.3845V0.290543L49.1126 4.15975V23.4579H64V17.3845H55.8278ZM39.6291 16.2345C38.7275 16.9502 37.6169 17.4156 36.4304 17.5751C35.2439 17.7347 34.0316 17.5816 32.9388 17.1342C31.846 16.6867 30.9189 15.964 30.2685 15.0524C29.6181 14.1407 29.2719 13.0789 29.2715 11.994C29.2715 8.87946 32.0662 6.3519 35.5099 6.3519C37.7219 6.3519 39.6689 7.39407 40.7682 8.96331L46.4238 5.70504C45.2569 4.04271 43.6447 2.67379 41.7368 1.72518C39.8289 0.776566 37.6871 0.278984 35.5099 0.278564C30.6755 0.278564 26.4636 2.68634 24.2384 6.23211C23.1073 4.42608 21.467 2.92357 19.4846 1.87771C17.5022 0.831861 15.2487 0.280064 12.9536 0.278564C5.81457 0.278564 0 5.53733 0 11.994C0 18.4507 5.81457 23.7094 12.9536 23.7094C17.7881 23.7094 22 21.3016 24.2252 17.7559C25.172 19.2719 26.4808 20.578 28.0561 21.5789C29.6315 22.5798 31.4338 23.2504 33.3319 23.5418C35.2299 23.8333 37.176 23.7383 39.0283 23.2637C40.8806 22.7892 42.5927 21.947 44.0397 20.7985L46.6093 23.4579H47.0066V12.9403H36.4106L39.6291 16.2345V16.2345ZM12.9536 17.6481C9.50993 17.6481 6.71523 15.1205 6.71523 12.006C6.71523 8.89144 9.50993 6.36388 12.9536 6.36388C16.3974 6.36388 19.2053 8.87946 19.2053 11.994C19.2053 15.1085 16.3974 17.6481 12.9536 17.6481Z" fill="#222222"/>
</svg>
