<svg preserveAspectRatio="none" viewBox="0 0 387 82" fill="none" xmlns="http://www.w3.org/2000/svg">
<path d="M2 8.74514L10.5333 21.2203L19.0667 28.6069L27.6 31.0691L36.1333 17.7732L44.6667 30.4125L53.2 20.2354L61.7333 27.1296L70.2667 15.8035L78.8 26.473L87.3333 20.5637L95.8667 17.1166L104.4 4.14903L112.933 3L121.467 30.4125L130 33.3672L138.533 39.933L147.067 36.8143L155.6 38.1274L164.133 33.3672L172.667 44.6933L181.2 41.5745L189.733 43.7084H198.267L206.8 40.7538L215.333 38.1274L223.867 51.4233L232.4 53.5572L240.933 57.6609L249.467 58.9741L258 68.6587L266.533 62.4212L275.067 72.5983L283.6 75.8812L292.133 79L300.667 67.6739L309.2 56.5119L317.733 62.7495L326.267 56.0194L334.8 64.2268L343.333 78.5076L351.867 75.5529L360.4 67.6739L368.933 54.0497L377.467 53.5572L386 54.8704" stroke="#1D70B8" stroke-width="4"/>
</svg>
