<svg preserveAspectRatio="none" viewBox="0 0 386 104" fill="none" xmlns="http://www.w3.org/2000/svg">
<path d="M1 102L6.64973 101.195L9.47135 100.127L15.1146 97.3584L17.9427 95.5267L23.5859 92.0715L26.4141 89.7333L32.0573 86.2295L34.8854 84.5643L40.5286 81.6364L43.3503 80.5055L49 78.6253L51.8216 78.0563L60.293 77.1336L63.1146 76.967L68.7643 76.7658L71.5859 76.7797L77.2357 76.1691H80.0573L97 76.0998L99.8216 75.7529L105.471 73.9628L108.293 73.6506L113.943 72.1381L116.764 71.2777L128.057 68.1L130.885 66.8165L142.178 61.4463L145 60.5791L156.293 57.5818L159.115 57.3667L164.764 56.5757L167.586 55.8542L176.057 54.9175L178.885 54.8689L184.529 55.6391L187.35 56.652L198.65 60.6554L201.471 61.5573L212.764 65.2207L215.586 66.6014L224.057 69.7305L226.885 69.8693L232.529 69.6611L235.35 69.453L241 68.7939L243.822 68.1278L246.65 67.6282L249.471 67.6768L255.115 67.3785L257.943 66.7124L266.414 64.631L269.236 64.2216L277.707 60.9815L280.529 59.6702L286.178 57.1377L289 55.2922L294.65 49.9012L297.471 46.8484L308.764 34.9841L311.586 31.5913L317.236 26.0339L320.057 23.1753L328.529 16.3412L331.35 14.5442L337 11.7065L339.822 10.7005L348.293 8.18886L351.115 7.87664L356.764 7.36321L359.586 6.3433L365.236 4.84465L368.057 3.71373L376.529 2.09019L379.35 2.00694L385 2" stroke="#1D70B8" stroke-width="4" stroke-miterlimit="2"/>
</svg>
